<?xml version="1.0" encoding="UTF-8"?>
<svg id="Layer_2" data-name="Layer 2" xmlns="http://www.w3.org/2000/svg" xmlns:xlink="http://www.w3.org/1999/xlink" viewBox="0 0 108.67 99.81">
  <defs>
    <style>
      .cls-1 {
        fill: url(#linear-gradient-3);
      }

      .cls-2 {
        fill: url(#linear-gradient-2);
      }

      .cls-3 {
        fill: url(#linear-gradient);
      }
    </style>
    <linearGradient id="linear-gradient" x1="939.72" y1="350.63" x2="1006.05" y2="417.84" gradientTransform="translate(-912.58 -313.15)" gradientUnits="userSpaceOnUse">
      <stop offset="0" stop-color="#5da2e1"/>
      <stop offset=".66" stop-color="#1167b2"/>
      <stop offset="1" stop-color="#0059a5"/>
    </linearGradient>
    <linearGradient id="linear-gradient-2" x1="947.62" y1="324.19" x2="987.33" y2="379.18" gradientTransform="translate(-912.58 -313.15)" gradientUnits="userSpaceOnUse">
      <stop offset="0" stop-color="#66b0ee"/>
      <stop offset="1" stop-color="#317ec3"/>
    </linearGradient>
    <linearGradient id="linear-gradient-3" x1="948.72" y1="318.04" x2="983.52" y2="351.56" gradientTransform="translate(-912.58 -313.15)" gradientUnits="userSpaceOnUse">
      <stop offset="0" stop-color="#68b0ed"/>
      <stop offset="1" stop-color="#418ccf"/>
    </linearGradient>
  </defs>
  <g id="Layer_1-2" data-name="Layer 1">
    <g>
      <path class="cls-3" d="M103.66,72.57c1.83-1.26,3.47-2.13,4.42-4.37,1.05-2.47.69-4.93-.95-7.03-.95-1.22-6.12-4.79-7.58-5.34-3.68-1.39-6.02,2.96-2.88,5.32,1.1.82,5.7,2.88,5.95,4.01.05.21-.07,1.05-.17,1.2-6.28,3.84-12.42,7.63-18.6,11.51-6.1,3.83-12.39,8.32-18.72,11.76-13.33,7.24-20.92.28-32.05-6.63-8.95-5.56-17.85-11.16-26.76-16.81-.58-.46-.41-1.18.02-1.7,1.29-1.57,6.12-2.86,6.77-4.93.69-2.19-1.01-4.39-3.31-4.05-1.02.15-6.8,3.83-7.65,4.66-3.77,3.67-2.24,9.58,2.05,12.09l38.57,24.76c2.69,1.37,5.49,2.29,8.52,2.57v.07c1.95.19,3.93.24,5.88.01v-.08c2.94-.32,5.9-1.21,8.52-2.57"/>
      <g>
        <path class="cls-2" d="M20.48,46.53c6.74,3.95,13.54,7.95,20.34,11.72,6.23,3.46,11.03,7.57,18.69,4.56,14.48-7.75,28.47-16.42,42.74-24.54.16-.13.29-.26.24-.49-.16-.63-8.13-4.52-9.23-5.89-1.85-2.32.61-5.17,3.55-4.28,1.31.4,7.53,4.32,8.83,5.31,4.03,3.08,3.86,8.32-.15,11.28l-41.76,24.79c-5.34,2.59-11.18,2.9-16.81.96-13.85-8.07-28.77-15.85-42.16-24.63-2.3-1.51-4.39-2.79-4.66-5.82-.17-1.87.1-3.59,1.23-5.13.98-1.33,8.61-6.21,10.27-6.8,2.89-1.03,5.39,1.94,3.63,4.36-.27.37-2.29,1.65-2.86,2.02-1.71,1.12-4.12,2.14-5.67,3.35-1.13.88.46,1.53,1.32,2.06,4.05,2.5,8.35,4.76,12.46,7.17Z"/>
        <path class="cls-1" d="M60.45,35.27c.78,7.39-7.98,12-13.04,6.46-1.65-1.8-1.86-3.81-1.98-6.12l-12.76-7.43c-4.31,1.61-8.37,1.03-10.64-3.24-3.21-6.03,3.25-12.97,9.35-10.08.69.33,1.43.98,1.43.98,0,0,1.97-1.16,2.56-1.52,3.33-2.03,10.42-6.47,10.42-6.47,0,0-.51-3.18,1.75-5.49,4.88-5.23,13.67-1.09,12.78,5.97l12.31,7.37s2.38-1.23,3.61-1.47c2.01-.38,3.98.31,5.57,1.51,5.55,4.18,2.73,12.87-4.17,13.3-4.94.31-8.29-3.72-7.97-8.48l-12.28-7.12c-.95.78-2.86,1.7-4.67,1.62-1.82-.08-3.64-.77-4.76-1.81l-11.41,7.13c.04.39.05.92-.06,1.54-.1.59-.28,1.06-.44,1.4,3.91,2.36,12.43,7.3,12.43,7.3,0,0,2.21-1.26,3.27-1.46,1.75-.33,3.88-.04,5.38.88,1.26.77,3.17,3.73,3.32,5.21h0Z"/>
      </g>
    </g>
  </g>
</svg>